<svg width="32" height="32" viewBox="0 0 32 32" fill="none" xmlns="http://www.w3.org/2000/svg">
<circle cx="16" cy="16" r="15" fill="#FFFDF9" stroke="#4D455D" stroke-width="2"/>
<path d="M11.0725 13.813L9.01448 15.871C8.1705 16.715 7.69635 17.8597 7.69635 19.0532C7.69635 20.2468 8.1705 21.3915 9.01448 22.2355C9.85847 23.0795 11.0032 23.5536 12.1967 23.5536C13.3903 23.5536 14.535 23.0795 15.379 22.2355L18.121 19.492C18.6299 18.983 19.0093 18.3593 19.2274 17.6733C19.4454 16.9873 19.4957 16.259 19.374 15.5496C19.2524 14.8402 18.9623 14.1702 18.5281 13.5961C18.094 13.022 17.5284 12.5603 16.879 12.25L16 13.129C15.9107 13.2184 15.8331 13.3187 15.769 13.4275C16.2708 13.5718 16.7262 13.8445 17.0903 14.2187C17.4544 14.5929 17.7145 15.0557 17.845 15.5612C17.9754 16.0668 17.9717 16.5976 17.8341 17.1013C17.6965 17.6049 17.4298 18.064 17.0605 18.433L14.32 21.175C13.7571 21.7379 12.9936 22.0542 12.1975 22.0542C11.4014 22.0542 10.6379 21.7379 10.075 21.175C9.51206 20.6121 9.19581 19.8486 9.19581 19.0525C9.19581 18.2564 9.51206 17.4929 10.075 16.93L11.2645 15.742C11.0967 15.1131 11.0318 14.4626 11.0725 13.813Z" fill="#4D455D"/>
<path d="M13.879 11.008C13.3701 11.517 12.9907 12.1407 12.7726 12.8267C12.5546 13.5127 12.5043 14.241 12.626 14.9504C12.7476 15.6599 13.0377 16.3298 13.4719 16.9039C13.906 17.478 14.4715 17.9397 15.121 18.25L16.2835 17.086C15.7749 16.9496 15.3112 16.6817 14.939 16.3093C14.5667 15.9369 14.299 15.4731 14.1628 14.9644C14.0266 14.4558 14.0267 13.9203 14.163 13.4117C14.2994 12.9031 14.5672 12.4393 14.9395 12.067L17.68 9.32501C18.2429 8.76208 19.0064 8.44584 19.8025 8.44584C20.5986 8.44584 21.3621 8.76208 21.925 9.32501C22.4879 9.88793 22.8042 10.6514 22.8042 11.4475C22.8042 12.2436 22.4879 13.0071 21.925 13.57L20.7355 14.758C20.9035 15.388 20.968 16.0405 20.9275 16.6885L22.9855 14.6305C23.8295 13.7865 24.3036 12.6418 24.3036 11.4483C24.3036 10.2547 23.8295 9.10999 22.9855 8.26601C22.1415 7.42202 20.9968 6.94788 19.8033 6.94788C18.6097 6.94788 17.465 7.42202 16.621 8.26601L13.879 11.008Z" fill="#4D455D"/>
</svg>
