<svg width="24" height="24" viewBox="0 0 24 24" fill="none" xmlns="http://www.w3.org/2000/svg">
<path fill-rule="evenodd" clip-rule="evenodd" d="M23.3793 12C23.3793 12.3772 23.2295 12.739 22.9627 13.0058C22.696 13.2725 22.3342 13.4224 21.9569 13.4224H5.47683L11.5847 19.5274C11.7169 19.6596 11.8218 19.8166 11.8934 19.9894C11.965 20.1622 12.0018 20.3474 12.0018 20.5344C12.0018 20.7215 11.965 20.9067 11.8934 21.0795C11.8218 21.2523 11.7169 21.4093 11.5847 21.5415C11.4524 21.6738 11.2954 21.7787 11.1226 21.8502C10.9498 21.9218 10.7646 21.9586 10.5776 21.9586C10.3906 21.9586 10.2054 21.9218 10.0326 21.8502C9.85979 21.7787 9.70278 21.6738 9.57053 21.5415L1.03605 13.007C0.903587 12.8749 0.798491 12.7179 0.726783 12.5451C0.655075 12.3723 0.618164 12.187 0.618164 12C0.618164 11.8129 0.655075 11.6276 0.726783 11.4548C0.798491 11.282 0.903587 11.125 1.03605 10.9929L9.57053 2.4584C9.83762 2.19131 10.1999 2.04126 10.5776 2.04126C10.9553 2.04126 11.3176 2.19131 11.5847 2.4584C11.8518 2.72549 12.0018 3.08775 12.0018 3.46547C12.0018 3.84319 11.8518 4.20545 11.5847 4.47254L5.47683 10.5775H21.9569C22.3342 10.5775 22.696 10.7274 22.9627 10.9942C23.2295 11.2609 23.3793 11.6227 23.3793 12Z" fill="#4D455D"/>
</svg>
