<svg width="32" height="32" viewBox="0 0 32 32" fill="none" xmlns="http://www.w3.org/2000/svg">
<circle cx="16" cy="16" r="15" fill="#FFFDF9" stroke="#4D455D" stroke-width="2"/>
<g clip-path="url(#clip0_119_2)">
<path fill-rule="evenodd" clip-rule="evenodd" d="M10.9375 12.75C10.7883 12.75 10.6452 12.8093 10.5398 12.9148C10.4343 13.0202 10.375 13.1633 10.375 13.3125V22.3125C10.375 22.4617 10.4343 22.6048 10.5398 22.7102C10.6452 22.8157 10.7883 22.875 10.9375 22.875H21.0625C21.2117 22.875 21.3548 22.8157 21.4602 22.7102C21.5657 22.6048 21.625 22.4617 21.625 22.3125V13.3125C21.625 13.1633 21.5657 13.0202 21.4602 12.9148C21.3548 12.8093 21.2117 12.75 21.0625 12.75H18.8125C18.6633 12.75 18.5202 12.6907 18.4148 12.5852C18.3093 12.4798 18.25 12.3367 18.25 12.1875C18.25 12.0383 18.3093 11.8952 18.4148 11.7898C18.5202 11.6843 18.6633 11.625 18.8125 11.625H21.0625C21.5101 11.625 21.9393 11.8028 22.2557 12.1193C22.5722 12.4357 22.75 12.8649 22.75 13.3125V22.3125C22.75 22.7601 22.5722 23.1893 22.2557 23.5057C21.9393 23.8222 21.5101 24 21.0625 24H10.9375C10.4899 24 10.0607 23.8222 9.74426 23.5057C9.42779 23.1893 9.25 22.7601 9.25 22.3125V13.3125C9.25 12.8649 9.42779 12.4357 9.74426 12.1193C10.0607 11.8028 10.4899 11.625 10.9375 11.625H13.1875C13.3367 11.625 13.4798 11.6843 13.5852 11.7898C13.6907 11.8952 13.75 12.0383 13.75 12.1875C13.75 12.3367 13.6907 12.4798 13.5852 12.5852C13.4798 12.6907 13.3367 12.75 13.1875 12.75H10.9375Z" fill="#4D455D"/>
<path fill-rule="evenodd" clip-rule="evenodd" d="M15.6017 6.16428C15.654 6.1119 15.7161 6.07033 15.7844 6.04198C15.8527 6.01362 15.926 5.99902 16 5.99902C16.074 5.99902 16.1472 6.01362 16.2156 6.04198C16.2839 6.07033 16.346 6.1119 16.3982 6.16428L19.7732 9.53928C19.8789 9.6449 19.9382 9.78816 19.9382 9.93753C19.9382 10.0869 19.8789 10.2302 19.7732 10.3358C19.6676 10.4414 19.5244 10.5007 19.375 10.5007C19.2256 10.5007 19.0824 10.4414 18.9767 10.3358L16.5625 7.9204V17.8125C16.5625 17.9617 16.5032 18.1048 16.3977 18.2103C16.2922 18.3158 16.1492 18.375 16 18.375C15.8508 18.375 15.7077 18.3158 15.6022 18.2103C15.4967 18.1048 15.4375 17.9617 15.4375 17.8125V7.9204L13.0232 10.3358C12.9709 10.3881 12.9088 10.4296 12.8405 10.4579C12.7722 10.4862 12.6989 10.5007 12.625 10.5007C12.4756 10.5007 12.3324 10.4414 12.2267 10.3358C12.1744 10.2835 12.1329 10.2214 12.1046 10.1531C12.0763 10.0847 12.0618 10.0115 12.0618 9.93753C12.0618 9.78816 12.1211 9.6449 12.2267 9.53928L15.6017 6.16428Z" fill="#4D455D"/>
</g>
<defs>
<clipPath id="clip0_119_2">
<rect width="18" height="18" fill="white" transform="translate(7 6)"/>
</clipPath>
</defs>
</svg>
